<svg width="130" height="41" viewBox="0 0 130 41" fill="none" xmlns="http://www.w3.org/2000/svg">
<path d="M104.654 13.5011C104.654 19.9088 99.7684 25.0973 93.742 25.0973C87.7157 25.0973 82.8298 19.8955 82.8298 13.4812C82.8298 13.4746 82.8298 13.4746 82.8298 13.4746V1.87839H86.7185V13.4746C86.7185 13.4812 86.7185 13.4679 86.7185 13.4746C86.7185 17.5962 89.8657 20.9558 93.742 20.9558C97.6184 20.9558 100.759 17.5962 100.759 13.4746C100.759 13.4679 100.759 13.4812 100.759 13.4746V1.87839H104.654V13.4746C104.654 13.4746 104.654 13.4878 104.654 13.5011ZM75.557 40.603H79.5455V14.2432C79.558 14.0113 79.5455 13.7794 79.5455 13.5408C79.5455 7.09998 74.6471 1.87839 68.5896 1.87839C62.5321 1.87839 57.6212 7.09998 57.6212 13.5408C57.6212 19.9817 62.5321 25.2033 68.5896 25.2033H69.1442L73.1826 20.9293H68.895H68.5896C64.7507 20.9293 61.6347 17.6161 61.6347 13.5342C61.6347 9.45235 64.7507 6.13916 68.5896 6.13916C72.4285 6.13916 75.557 9.45235 75.557 13.5342V40.603ZM54.2996 25.3226H43.2439C43.0009 25.3226 42.7578 25.3159 42.5148 25.296C39.3801 25.0774 36.6068 23.4672 34.731 21.0419C33.1294 18.9678 32.2133 16.4167 32.207 13.5806C32.4625 0.354319 49.3015 -2.60768 53.6452 9.59151C54.0752 10.8638 54.2996 12.2222 54.2996 13.5806V25.3226ZM43.2564 21.0419C45.1946 21.0419 50.2176 21.0419 50.2176 21.0419C50.2176 21.0419 50.2176 15.648 50.2176 13.5872C50.2425 6.94758 42.6394 3.68739 38.3206 8.33912C37.0493 9.68428 36.2641 11.533 36.2641 13.5872C36.2578 17.689 39.3926 21.0419 43.2564 21.0419ZM130 25.3226H118.944C118.701 25.3226 118.458 25.3159 118.215 25.296C115.08 25.0774 112.307 23.4672 110.431 21.0419C108.83 18.9678 107.914 16.4167 107.907 13.5806C108.163 0.354319 125.002 -2.60768 129.346 9.59151C129.776 10.8638 130 12.2222 130 13.5806V25.3226ZM118.957 21.0419C120.895 21.0419 125.918 21.0419 125.918 21.0419C125.918 21.0419 125.918 15.648 125.918 13.5872C125.943 6.94758 118.34 3.68739 114.021 8.33912C112.75 9.68428 111.964 11.533 111.964 13.5872C111.958 17.689 115.093 21.0419 118.957 21.0419Z" fill="white"/>
<path d="M5.63375 20.969V7.13978C5.63375 6.28497 4.77373 6.28497 4.77373 6.28497C4.43097 6.28497 4.28763 6.43738 4.13806 6.58979L0.411314 10.5524C0.149569 10.8373 0 11.2216 0 11.6258V20.969H5.63375Z" fill="white"/>
<path d="M19.5561 0.16217H10.769C10.3888 0.16217 10.0274 0.321204 9.75939 0.606138L6.03887 4.56872C5.89553 4.72113 5.7522 4.87353 5.7522 5.24461C5.7522 5.24461 5.7522 6.16568 6.55613 6.16568H19.5561V0.16217Z" fill="white"/>
<path opacity="0.89" d="M13.9224 6.15905H19.5561V0.16217L13.9224 6.15905Z" fill="url(#paint0_linear)"/>
<path opacity="0.82" d="M0 20.9689L5.63375 14.9787V20.9689H0Z" fill="url(#paint1_linear)"/>
<path d="M0 20.9689L5.63375 14.9787V20.9689H0Z" fill="url(#paint2_linear)"/>
<path d="M19.5561 0.16217L13.9224 6.15243H19.5561V0.16217Z" fill="url(#paint3_linear)"/>
<path d="M25.0528 0.66574C24.8908 0.374178 24.548 0.155508 24.2115 0.162134H19.5562C19.5562 4.0452 19.5562 15.9197 19.5562 19.9817C19.5562 20.8365 20.3788 20.8365 20.4224 20.8365C20.7652 20.8365 20.9147 20.6841 21.0581 20.5317L24.7848 16.5691C25.0528 16.2841 25.2024 15.8998 25.2024 15.4956V1.13621C25.1961 0.97718 25.14 0.818147 25.0528 0.66574Z" fill="white"/>
<path d="M0.479866 26.8201C0.205657 26.6478 0 26.2834 0 25.9255V20.969C0 20.969 14.8198 20.9756 18.64 20.969C19.4439 20.969 19.4439 21.8304 19.4439 21.8768C19.4439 22.2413 19.3006 22.4003 19.1572 22.5527L15.4367 26.5153C15.1687 26.8002 14.8073 26.9593 14.4271 26.9593L0.916108 26.9725C0.772771 26.9725 0.61697 26.9129 0.479866 26.8201Z" fill="white"/>
<defs>
<linearGradient id="paint0_linear" x1="15.6187" y1="7.34954" x2="21.3581" y2="1.95176" gradientUnits="userSpaceOnUse">
<stop stop-color="#1904DA" stop-opacity="0"/>
<stop offset="1" stop-color="#1904DA" stop-opacity="0.2"/>
</linearGradient>
<linearGradient id="paint1_linear" x1="1.11288" y1="22.7612" x2="7.23418" y2="17.0306" gradientUnits="userSpaceOnUse">
<stop stop-color="#1904DA" stop-opacity="0.2"/>
<stop offset="1" stop-color="#1904DA" stop-opacity="0"/>
</linearGradient>
<linearGradient id="paint2_linear" x1="2.81773" y1="20.9701" x2="2.81773" y2="14.979" gradientUnits="userSpaceOnUse">
<stop stop-color="#1904DA" stop-opacity="0.3"/>
<stop offset="0.00761682" stop-color="#1904DA" stop-opacity="0.2905"/>
<stop offset="0.2406" stop-color="#1904DA" stop-opacity="0"/>
</linearGradient>
<linearGradient id="paint3_linear" x1="19.5586" y1="3.15875" x2="13.9241" y2="3.15875" gradientUnits="userSpaceOnUse">
<stop stop-color="#1904DA" stop-opacity="0.3"/>
<stop offset="0.00761682" stop-color="#1904DA" stop-opacity="0.2905"/>
<stop offset="0.2406" stop-color="#1904DA" stop-opacity="0"/>
</linearGradient>
</defs>
</svg>
