<svg width="676" height="80" viewBox="0 0 676 80" fill="none" xmlns="http://www.w3.org/2000/svg">
<path d="M13.1424 55H0.784446L19.6143 0.454544H34.4759L53.2791 55H40.9212L27.2582 12.919H26.832L13.1424 55ZM12.37 33.56H41.5604V42.5621H12.37V33.56ZM97.9835 70.3409H86.6642V48.4482H86.318C85.7853 49.5845 85.0307 50.712 84.0542 51.8306C83.0953 52.9315 81.8436 53.8459 80.2988 54.5739C78.7718 55.3018 76.9075 55.6658 74.7058 55.6658C71.5985 55.6658 68.7843 54.8668 66.263 53.2688C63.7594 51.6531 61.7708 49.2827 60.2971 46.1577C58.8411 43.0149 58.1131 39.1619 58.1131 34.5987C58.1131 29.9112 58.8677 26.0138 60.377 22.9066C61.8862 19.7816 63.8926 17.4467 66.3961 15.902C68.9174 14.3395 71.6784 13.5582 74.6792 13.5582C76.9696 13.5582 78.8784 13.9489 80.4054 14.7301C81.9501 15.4936 83.193 16.4524 84.1341 17.6065C85.0929 18.7429 85.8208 19.8615 86.318 20.9624H86.7974V14.0909H97.9835V70.3409ZM86.9039 34.5455C86.9039 32.1129 86.5666 30 85.8919 28.2067C85.2172 26.4134 84.2406 25.0284 82.9622 24.0518C81.6838 23.0753 80.1301 22.587 78.3013 22.587C76.437 22.587 74.8656 23.093 73.5872 24.1051C72.3088 25.1172 71.3411 26.5199 70.6841 28.3132C70.0272 30.1065 69.6987 32.1839 69.6987 34.5455C69.6987 36.9247 70.0272 39.0288 70.6841 40.8576C71.3588 42.6687 72.3265 44.0891 73.5872 45.119C74.8656 46.131 76.437 46.6371 78.3013 46.6371C80.1301 46.6371 81.6749 46.1399 82.9355 45.1456C84.214 44.1335 85.1905 42.7219 85.8652 40.9109C86.5577 39.0998 86.9039 36.978 86.9039 34.5455ZM133.326 37.5817V14.0909H144.672V55H133.779V47.5692H133.353C132.43 49.9663 130.894 51.8928 128.745 53.3487C126.615 54.8047 124.013 55.5327 120.942 55.5327C118.207 55.5327 115.801 54.9112 113.724 53.6683C111.646 52.4254 110.022 50.6587 108.85 48.3683C107.696 46.0778 107.11 43.3345 107.092 40.1385V14.0909H118.438V38.1143C118.456 40.5291 119.104 42.4379 120.382 43.8406C121.661 45.2433 123.374 45.9446 125.523 45.9446C126.89 45.9446 128.168 45.6339 129.358 45.0124C130.547 44.3732 131.506 43.4322 132.234 42.1893C132.98 40.9464 133.344 39.4105 133.326 37.5817ZM165.413 55.7724C162.803 55.7724 160.477 55.3196 158.435 54.4141C156.393 53.4908 154.777 52.1325 153.588 50.3391C152.416 48.5281 151.83 46.2731 151.83 43.5742C151.83 41.3015 152.247 39.3928 153.082 37.848C153.916 36.3033 155.052 35.0604 156.491 34.1193C157.929 33.1783 159.562 32.468 161.391 31.9886C163.238 31.5092 165.173 31.1719 167.197 30.9766C169.577 30.728 171.494 30.4972 172.95 30.2841C174.406 30.0533 175.463 29.7159 176.12 29.272C176.777 28.8281 177.105 28.1712 177.105 27.3011V27.1413C177.105 25.4545 176.572 24.1495 175.507 23.2262C174.459 22.3029 172.968 21.8413 171.033 21.8413C168.991 21.8413 167.366 22.294 166.159 23.1996C164.951 24.0874 164.152 25.206 163.762 26.5554L153.268 25.7031C153.801 23.2173 154.848 21.0689 156.411 19.2578C157.973 17.429 159.989 16.0263 162.457 15.0497C164.942 14.0554 167.819 13.5582 171.086 13.5582C173.359 13.5582 175.534 13.8246 177.611 14.3572C179.706 14.8899 181.562 15.7156 183.177 16.8342C184.811 17.9528 186.098 19.391 187.039 21.1488C187.98 22.8888 188.451 24.9751 188.451 27.4077V55H177.691V49.3271H177.371C176.714 50.6055 175.835 51.733 174.735 52.7095C173.634 53.6683 172.311 54.4229 170.766 54.9734C169.222 55.506 167.437 55.7724 165.413 55.7724ZM168.662 47.9421C170.331 47.9421 171.805 47.6136 173.083 46.9567C174.362 46.282 175.365 45.3764 176.093 44.2401C176.821 43.1037 177.185 41.8164 177.185 40.3782V36.0369C176.83 36.2678 176.342 36.4808 175.72 36.6761C175.116 36.8537 174.433 37.0224 173.669 37.1822C172.906 37.3242 172.142 37.4574 171.379 37.5817C170.615 37.6882 169.923 37.7859 169.301 37.8746C167.97 38.07 166.807 38.3807 165.812 38.8068C164.818 39.233 164.046 39.81 163.495 40.538C162.945 41.2482 162.67 42.136 162.67 43.2013C162.67 44.7461 163.229 45.9268 164.348 46.7436C165.484 47.5426 166.922 47.9421 168.662 47.9421Z" fill="white"/>
<path d="M219.159 37.075V25.6H230.784V19H219.159V4.225H212.709V36.85C212.709 42.475 215.184 47.425 219.159 50.8C222.309 53.425 226.284 55 230.784 55V48.55C224.409 48.55 219.234 43.375 219.159 37.075ZM250.978 19.075C241.003 19.075 232.978 27.1 232.978 37C232.978 46.975 241.003 55 250.978 55C258.328 55 264.628 50.575 267.403 44.2H259.828C257.728 46.825 254.503 48.475 250.978 48.475C245.428 48.475 240.853 44.575 239.728 39.4H268.753C270.253 28.675 261.703 18.925 250.978 19.075ZM240.328 32.8C241.978 28.6 246.103 25.6 250.978 25.6C255.778 25.6 259.903 28.6 261.553 32.8H240.328ZM290.602 48.55C287.377 48.55 284.527 47.2 282.427 45.175C280.402 43.075 279.052 40.225 279.052 37C279.052 33.85 280.402 31 282.427 28.9C284.527 26.875 287.377 25.525 290.602 25.525C293.752 25.525 296.602 26.875 298.702 28.9L303.277 24.325C300.052 21.025 295.552 19.075 290.602 19.075C285.577 19.075 281.077 21.025 277.852 24.325C274.552 27.55 272.602 32.05 272.602 37C272.602 42.025 274.552 46.525 277.852 49.75C281.077 53.05 285.577 55 290.602 55C295.552 55 300.052 53.05 303.277 49.75L298.702 45.175C296.602 47.2 293.752 48.55 290.602 48.55ZM326.016 19.15C318.891 19.15 314.616 23.2 314.616 23.2V4.225H308.091V55H314.616C314.616 55 314.616 43.225 314.616 37.075C314.616 30.55 319.866 25.675 326.016 25.675C332.166 25.675 337.416 30.625 337.416 37.075C337.416 43.225 337.416 55 337.416 55H343.941C343.941 55 343.941 49.6 343.941 37.075C343.941 25.675 334.416 19.15 326.016 19.15ZM386.036 19.075C376.061 19.075 368.036 27.1 368.036 37C368.036 46.975 376.061 55 386.036 55C393.386 55 399.686 50.575 402.461 44.2H394.886C392.786 46.825 389.561 48.475 386.036 48.475C380.486 48.475 375.911 44.575 374.786 39.4H403.811C405.311 28.675 396.761 18.925 386.036 19.075ZM375.386 32.8C377.036 28.6 381.161 25.6 386.036 25.6C390.836 25.6 394.961 28.6 396.611 32.8H375.386ZM425.804 37L439.604 19H431.354L421.679 31.675L411.929 19H403.679L417.479 37L403.679 55H411.929L421.679 42.4L431.354 55H439.679L425.804 37ZM457.301 48.55C454.076 48.55 451.226 47.2 449.126 45.175C447.101 43.075 445.751 40.225 445.751 37C445.751 33.85 447.101 31 449.126 28.9C451.226 26.875 454.076 25.525 457.301 25.525C460.451 25.525 463.301 26.875 465.401 28.9L469.976 24.325C466.751 21.025 462.251 19.075 457.301 19.075C452.276 19.075 447.776 21.025 444.551 24.325C441.251 27.55 439.301 32.05 439.301 37C439.301 42.025 441.251 46.525 444.551 49.75C447.776 53.05 452.276 55 457.301 55C462.251 55 466.751 53.05 469.976 49.75L465.401 45.175C463.301 47.2 460.451 48.55 457.301 48.55ZM492.716 19.15C485.591 19.15 481.316 23.2 481.316 23.2V4.225H474.791V55H481.316C481.316 55 481.316 43.225 481.316 37.075C481.316 30.55 486.566 25.675 492.716 25.675C498.866 25.675 504.116 30.625 504.116 37.075C504.116 43.225 504.116 55 504.116 55H510.641C510.641 55 510.641 49.6 510.641 37.075C510.641 25.675 501.116 19.15 492.716 19.15ZM550.057 30.925C543.007 12.175 515.482 16.675 515.107 37C515.107 41.35 516.607 45.25 519.157 48.475C522.232 52.225 526.807 54.625 531.907 55C532.282 55 532.657 55 533.107 55H551.107V37C551.107 34.9 550.807 32.875 550.057 30.925ZM544.432 48.475C544.432 48.475 536.257 48.475 533.107 48.475C526.807 48.475 521.707 43.3 521.707 37C521.707 33.85 522.982 31 525.007 28.975C532.057 21.775 544.507 26.8 544.432 37C544.432 40.15 544.432 48.475 544.432 48.475ZM575.408 19C568.283 19 563.933 23.125 563.933 23.125V19C560.183 19 557.408 19 557.408 19V55H563.933C563.933 55 563.933 43.225 563.933 37C563.933 30.475 569.183 25.6 575.408 25.6C581.558 25.6 586.808 30.55 586.808 37C586.808 43.225 586.808 55 586.808 55H593.333C593.333 55 593.333 49.6 593.333 37C593.333 25.6 583.808 19 575.408 19ZM627.719 19V23.125C616.019 13.525 597.869 22 597.944 37.075C598.169 53.8 617.444 59.875 627.719 51.025V61.375C627.719 70.9 615.644 75.925 608.669 69.775L603.944 74.5C615.419 84.775 634.394 76.6 634.319 61.375V19H627.719ZM624.419 45.025C620.219 49.6 612.044 49.6 607.769 45.025C600.794 37.9 605.969 25.6 616.094 25.6C626.294 25.6 631.469 37.9 624.419 45.025ZM657.692 19.075C647.717 19.075 639.692 27.1 639.692 37C639.692 46.975 647.717 55 657.692 55C665.042 55 671.342 50.575 674.117 44.2H666.542C664.442 46.825 661.217 48.475 657.692 48.475C652.142 48.475 647.567 44.575 646.442 39.4H675.467C676.967 28.675 668.417 18.925 657.692 19.075ZM647.042 32.8C648.692 28.6 652.817 25.6 657.692 25.6C662.492 25.6 666.617 28.6 668.267 32.8H647.042Z" fill="#00FFE4"/>
</svg>
